<?xml version="1.0" encoding="utf-8"?>
<!-- Generator: Adobe Illustrator 16.0.3, SVG Export Plug-In . SVG Version: 6.00 Build 0)  -->
<!DOCTYPE svg PUBLIC "-//W3C//DTD SVG 1.1//EN" "http://www.w3.org/Graphics/SVG/1.1/DTD/svg11.dtd">
<svg version="1.1" id="IconSurgeon" xmlns="http://www.w3.org/2000/svg" xmlns:xlink="http://www.w3.org/1999/xlink" x="0px"
	 y="0px" width="500px" height="500px" viewBox="0 0 500 500" enable-background="new 0 0 500 500" xml:space="preserve">
<g>
	<path fill="#910029" d="M29.586,468.14c0.497-4.405,0.965-8.813,1.496-13.214c4.609-38.188,15.419-74.216,37.422-106.25
		c11.567-16.841,25.719-30.994,44.029-40.568c8.752-4.574,18.01-7.654,27.813-8.889c6.722-0.847,12.978,0.737,18.843,4.159
		c25.227,14.717,50.515,29.327,75.719,44.08c10.46,6.123,20.723,6.165,31.257,0.165c24.039-13.692,48.373-26.886,72.152-41.014
		c10.313-6.127,20.374-7.079,31.563-4.029c19.706,5.368,35.721,16.439,49.369,31.237c17.007,18.438,28.564,40.103,37.007,63.54
		c7.021,19.491,11.437,39.588,13.686,60.172c0.068,0.63,0.31,1.24,0.47,1.86c0,2.269,0,4.536,0,6.805
		c-0.156,0.359-0.381,0.704-0.46,1.079c-2.509,11.856-9.752,19.192-21.342,22.389c-0.996,0.274-1.99,0.556-2.986,0.833
		c-86.997,0-173.997,0-260.996,0c1.465-0.274,1.462-1.347,1.503-2.531c0.906-26.617,1.855-53.234,2.751-79.854
		c0.155-4.608,0.18-9.227,0.127-13.838c-0.035-3.213-0.355-3.474-3.458-3.667c-2.665-0.167-5.338-0.225-8.006-0.372
		c-6.72-0.372-6.78-0.384-7.066,6.337c-0.449,10.515-0.826,21.031-1.196,31.549c-0.731,20.792-1.436,41.584-2.151,62.376
		c-37.748,0-75.497,0-113.244,0c-0.604-0.182-1.197-0.401-1.811-0.537c-9.919-2.207-16.984-7.888-20.994-17.268
		c-0.566-1.326-1.002-2.709-1.498-4.065C29.586,468.463,29.586,468.301,29.586,468.14z M185.96,389.171
		c-0.65-1.438-1.167-2.417-1.547-3.446c-0.949-2.565-2.01-5.109-2.711-7.746c-1.292-4.857-0.06-9.669,0.807-14.423
		c1.631-8.938,0.067-17.053-5.671-24.224c-0.463-0.578-0.996-1.101-1.853-2.038c-0.108,1.408-0.194,2.193-0.227,2.981
		c-0.229,5.744-0.462,11.489-0.67,17.234c-0.346,9.549-0.707,19.098-0.949,28.648c-0.021,0.79,0.742,2.248,1.257,2.303
		C178.073,388.849,181.781,388.952,185.96,389.171z"/>
	<path fill="#910029" d="M258.991,16.135c4.969,0.62,9.968,1.061,14.902,1.886c39.485,6.606,69.256,27.458,89.757,61.665
		c10.146,16.926,16.177,35.386,19.605,54.746c0.107,0.61,0.014,1.256,0.014,2.009c-88.53,24.142-177.004,23.344-265.677,0.208
		c1.83-10.921,4.526-21.383,8.305-31.552c10.718-28.849,28.002-52.597,54.283-69.22c16.84-10.652,35.301-16.703,55.087-18.799
		c2.726-0.289,5.446-0.627,8.17-0.942C248.622,16.135,253.806,16.135,258.991,16.135z"/>
	<path fill="#910029" d="M341.347,246.264c-8.979,11.298-19.349,20.58-31.78,27.152c-40.356,21.333-80.774,21.769-120.826-0.854
		c-11.44-6.462-22.75-17.396-28.536-26.298C220.558,246.264,280.767,246.264,341.347,246.264z"/>
	<path fill="#910029" d="M332.037,163.929c18.342-2.343,36.452-4.657,55-7.026c-0.513,2.187-0.896,3.964-1.348,5.724
		c-4.346,16.993-8.727,33.977-13.021,50.982c-0.465,1.837-1.097,2.63-3.195,2.608c-11.659-0.123-23.32-0.057-34.979-0.064
		c-0.791,0-1.581-0.065-2.457-0.105C332.037,198.622,332.037,181.402,332.037,163.929z"/>
	<path fill="#910029" d="M167.878,216.236c-3.031,0-6.014,0-8.996,0c-9.231,0-18.465-0.041-27.696,0.038
		c-1.637,0.015-2.406-0.4-2.875-2.062c-5.058-17.894-10.198-35.761-15.312-53.639c-0.152-0.535-0.231-1.092-0.408-1.933
		c0.903,0,1.667-0.061,2.418,0.009c17.166,1.589,34.33,3.203,51.498,4.769c1.185,0.107,1.755,0.433,1.751,1.71
		c-0.041,16.764-0.052,33.526-0.078,50.29C168.18,215.57,168.073,215.721,167.878,216.236z"/>
</g>
</svg>
